<mxfile host="app.diagrams.net" agent="Mozilla/5.0 (X11; Ubuntu; Linux x86_64; rv:137.0) Gecko/20100101 Firefox/137.0" version="26.2.13">
  <diagram name="Page-1" id="e56a1550-8fbb-45ad-956c-1786394a9013">
    <mxGraphModel dx="1122" dy="765" grid="1" gridSize="10" guides="1" tooltips="1" connect="1" arrows="1" fold="1" page="1" pageScale="1" pageWidth="1100" pageHeight="850" background="none" math="0" shadow="0">
      <root>
        <mxCell id="0" />
        <mxCell id="1" parent="0" />
        <mxCell id="-yXR84pEISBXPebQsvSQ-5" value="" style="rounded=1;whiteSpace=wrap;html=1;" parent="1" vertex="1">
          <mxGeometry x="40" y="30" width="220" height="720" as="geometry" />
        </mxCell>
        <mxCell id="-yXR84pEISBXPebQsvSQ-6" value="&lt;h1&gt;&lt;font face=&quot;Verdana&quot; style=&quot;font-size: 22px;&quot;&gt;GUI Layer&lt;/font&gt;&lt;/h1&gt;" style="text;html=1;align=center;verticalAlign=middle;whiteSpace=wrap;rounded=0;" parent="1" vertex="1">
          <mxGeometry x="61" y="60" width="180" height="50" as="geometry" />
        </mxCell>
        <mxCell id="-yXR84pEISBXPebQsvSQ-9" value="" style="endArrow=none;html=1;rounded=0;" parent="1" edge="1">
          <mxGeometry width="50" height="50" relative="1" as="geometry">
            <mxPoint x="40" y="130" as="sourcePoint" />
            <mxPoint x="260" y="130" as="targetPoint" />
          </mxGeometry>
        </mxCell>
        <mxCell id="-yXR84pEISBXPebQsvSQ-30" value="" style="rounded=1;whiteSpace=wrap;html=1;" parent="1" vertex="1">
          <mxGeometry x="440" y="30" width="220" height="720" as="geometry" />
        </mxCell>
        <mxCell id="-yXR84pEISBXPebQsvSQ-31" value="&lt;h1&gt;&lt;font face=&quot;Verdana&quot; style=&quot;font-size: 22px;&quot;&gt;Business/Infrastructure Layer&lt;/font&gt;&lt;/h1&gt;" style="text;html=1;align=center;verticalAlign=middle;whiteSpace=wrap;rounded=0;" parent="1" vertex="1">
          <mxGeometry x="461" y="60" width="180" height="50" as="geometry" />
        </mxCell>
        <mxCell id="-yXR84pEISBXPebQsvSQ-32" value="" style="endArrow=none;html=1;rounded=0;" parent="1" edge="1">
          <mxGeometry width="50" height="50" relative="1" as="geometry">
            <mxPoint x="440" y="130" as="sourcePoint" />
            <mxPoint x="660" y="130" as="targetPoint" />
          </mxGeometry>
        </mxCell>
        <mxCell id="-yXR84pEISBXPebQsvSQ-37" value="" style="rounded=1;whiteSpace=wrap;html=1;" parent="1" vertex="1">
          <mxGeometry x="840" y="30" width="220" height="720" as="geometry" />
        </mxCell>
        <mxCell id="-yXR84pEISBXPebQsvSQ-38" value="&lt;h1&gt;&lt;font face=&quot;Verdana&quot;&gt;Models&lt;/font&gt;&lt;/h1&gt;" style="text;html=1;align=center;verticalAlign=middle;whiteSpace=wrap;rounded=0;" parent="1" vertex="1">
          <mxGeometry x="861" y="60" width="180" height="50" as="geometry" />
        </mxCell>
        <mxCell id="-yXR84pEISBXPebQsvSQ-39" value="" style="endArrow=none;html=1;rounded=0;" parent="1" edge="1">
          <mxGeometry width="50" height="50" relative="1" as="geometry">
            <mxPoint x="840" y="130" as="sourcePoint" />
            <mxPoint x="1060" y="130" as="targetPoint" />
          </mxGeometry>
        </mxCell>
        <mxCell id="-yXR84pEISBXPebQsvSQ-44" value="&lt;h2 style=&quot;margin:0px;margin-top:4px;text-align:center;&quot;&gt;EncryptionService&lt;/h2&gt;&lt;hr size=&quot;1&quot; style=&quot;border-style:solid;&quot;&gt;&lt;h3&gt;&lt;div style=&quot;height:2px;&quot;&gt;&lt;ul&gt;&lt;li&gt;AES-256-GCM- Verschlüsselung&lt;/li&gt;&lt;li&gt;Verschlüsselungs-operationen&lt;/li&gt;&lt;/ul&gt;&lt;div&gt;&lt;br&gt;&lt;/div&gt;&lt;/div&gt;&lt;/h3&gt;" style="verticalAlign=top;align=left;overflow=fill;html=1;whiteSpace=wrap;" parent="1" vertex="1">
          <mxGeometry x="460" y="170" width="179" height="120" as="geometry" />
        </mxCell>
        <mxCell id="-yXR84pEISBXPebQsvSQ-47" value="&lt;h2 style=&quot;margin:0px;margin-top:4px;text-align:center;&quot;&gt;DataBaseService&lt;/h2&gt;&lt;hr size=&quot;1&quot; style=&quot;border-style:solid;&quot;&gt;&lt;h3&gt;&lt;div style=&quot;height:2px;&quot;&gt;&lt;ul&gt;&lt;li&gt;SQLite-Datenbank&lt;/li&gt;&lt;li&gt;Datenpersistenz&lt;/li&gt;&lt;li&gt;Datenbank-operationen&lt;/li&gt;&lt;/ul&gt;&lt;div&gt;&lt;br&gt;&lt;/div&gt;&lt;/div&gt;&lt;/h3&gt;" style="verticalAlign=top;align=left;overflow=fill;html=1;whiteSpace=wrap;" parent="1" vertex="1">
          <mxGeometry x="458" y="310" width="179" height="120" as="geometry" />
        </mxCell>
        <mxCell id="-yXR84pEISBXPebQsvSQ-48" value="&lt;h2 style=&quot;margin:0px;margin-top:4px;text-align:center;&quot;&gt;&lt;b&gt;FileStorageService&lt;/b&gt;&lt;/h2&gt;&lt;hr size=&quot;1&quot; style=&quot;border-style:solid;&quot;&gt;&lt;h3&gt;&lt;div style=&quot;height:2px;&quot;&gt;&lt;ul&gt;&lt;li&gt;Dateioperationen&lt;/li&gt;&lt;li&gt;Dateispeicherung&lt;/li&gt;&lt;li&gt;Verschlüsselungs-koordination&lt;/li&gt;&lt;/ul&gt;&lt;div&gt;&lt;br&gt;&lt;/div&gt;&lt;/div&gt;&lt;/h3&gt;" style="verticalAlign=top;align=left;overflow=fill;html=1;whiteSpace=wrap;" parent="1" vertex="1">
          <mxGeometry x="458" y="450" width="179" height="120" as="geometry" />
        </mxCell>
        <mxCell id="-yXR84pEISBXPebQsvSQ-49" value="&lt;h2 style=&quot;margin:0px;margin-top:4px;text-align:center;&quot;&gt;PasswordService&lt;/h2&gt;&lt;hr size=&quot;1&quot; style=&quot;border-style:solid;&quot;&gt;&lt;h3&gt;&lt;div style=&quot;height:2px;&quot;&gt;&lt;ul&gt;&lt;li&gt;Passwort-Hashing&lt;/li&gt;&lt;li&gt;Authentifizierung&lt;/li&gt;&lt;/ul&gt;&lt;div&gt;&lt;br&gt;&lt;/div&gt;&lt;/div&gt;&lt;/h3&gt;" style="verticalAlign=top;align=left;overflow=fill;html=1;whiteSpace=wrap;" parent="1" vertex="1">
          <mxGeometry x="456" y="590" width="179" height="120" as="geometry" />
        </mxCell>
        <mxCell id="-yXR84pEISBXPebQsvSQ-54" value="&lt;h2 style=&quot;margin:0px;margin-top:4px;text-align:center;&quot;&gt;FileVaultApp&lt;/h2&gt;&lt;hr size=&quot;1&quot; style=&quot;border-style:solid;&quot;&gt;&lt;h3&gt;&lt;div style=&quot;height:2px;&quot;&gt;&lt;ul&gt;&lt;li&gt;Anwendungsstart&lt;/li&gt;&lt;li&gt;GUI-Start&lt;/li&gt;&lt;li&gt;Lebenszyklus&lt;/li&gt;&lt;/ul&gt;&lt;div&gt;&lt;br&gt;&lt;/div&gt;&lt;/div&gt;&lt;/h3&gt;" style="verticalAlign=top;align=left;overflow=fill;html=1;whiteSpace=wrap;" parent="1" vertex="1">
          <mxGeometry x="62" y="170" width="179" height="120" as="geometry" />
        </mxCell>
        <mxCell id="-yXR84pEISBXPebQsvSQ-55" value="&lt;h2 style=&quot;margin:0px;margin-top:4px;text-align:center;&quot;&gt;&lt;b&gt;LoginController&lt;/b&gt;&lt;/h2&gt;&lt;hr size=&quot;1&quot; style=&quot;border-style:solid;&quot;&gt;&lt;h3&gt;&lt;div style=&quot;height:2px;&quot;&gt;&lt;ul&gt;&lt;li&gt;Useranmeldung&lt;/li&gt;&lt;li&gt;Passwortvalidierung&lt;/li&gt;&lt;li&gt;Weiterleitung zum Hauptmenü&lt;/li&gt;&lt;/ul&gt;&lt;/div&gt;&lt;/h3&gt;" style="verticalAlign=top;align=left;overflow=fill;html=1;whiteSpace=wrap;" parent="1" vertex="1">
          <mxGeometry x="60" y="310" width="179" height="120" as="geometry" />
        </mxCell>
        <mxCell id="-yXR84pEISBXPebQsvSQ-56" value="&lt;h2 style=&quot;margin:0px;margin-top:4px;text-align:center;&quot;&gt;&lt;b&gt;MainController&lt;/b&gt;&lt;/h2&gt;&lt;hr size=&quot;1&quot; style=&quot;border-style:solid;&quot;&gt;&lt;h3&gt;&lt;div style=&quot;height:2px;&quot;&gt;&lt;ul&gt;&lt;li&gt;Hauptansicht&lt;/li&gt;&lt;li&gt;Ordnerstruktur&lt;/li&gt;&lt;li&gt;Dateioperationen&lt;/li&gt;&lt;/ul&gt;&lt;div&gt;&lt;br&gt;&lt;/div&gt;&lt;/div&gt;&lt;/h3&gt;" style="verticalAlign=top;align=left;overflow=fill;html=1;whiteSpace=wrap;" parent="1" vertex="1">
          <mxGeometry x="60" y="450" width="179" height="120" as="geometry" />
        </mxCell>
        <mxCell id="-yXR84pEISBXPebQsvSQ-57" value="&lt;h2 style=&quot;margin:0px;margin-top:4px;text-align:center;&quot;&gt;FolderManager&lt;/h2&gt;&lt;hr size=&quot;1&quot; style=&quot;border-style:solid;&quot;&gt;&lt;h3&gt;&lt;div style=&quot;height:2px;&quot;&gt;&lt;ul&gt;&lt;li&gt;Dateiimport/ -export&lt;/li&gt;&lt;li&gt;Ordner-inhaltsanzeige&lt;/li&gt;&lt;/ul&gt;&lt;/div&gt;&lt;/h3&gt;" style="verticalAlign=top;align=left;overflow=fill;html=1;whiteSpace=wrap;" parent="1" vertex="1">
          <mxGeometry x="58" y="590" width="179" height="120" as="geometry" />
        </mxCell>
        <mxCell id="-yXR84pEISBXPebQsvSQ-58" value="&lt;h2 style=&quot;margin:0px;margin-top:4px;text-align:center;&quot;&gt;User&lt;/h2&gt;&lt;hr size=&quot;1&quot; style=&quot;border-style:solid;&quot;&gt;&lt;h3&gt;&lt;div style=&quot;height:2px;&quot;&gt;&lt;ul&gt;&lt;li&gt;Benutzerdaten-repräsentation&lt;/li&gt;&lt;li&gt;Berechtigungs/verwaltung&lt;/li&gt;&lt;/ul&gt;&lt;div&gt;&lt;br&gt;&lt;/div&gt;&lt;/div&gt;&lt;/h3&gt;" style="verticalAlign=top;align=left;overflow=fill;html=1;whiteSpace=wrap;" parent="1" vertex="1">
          <mxGeometry x="862" y="170" width="179" height="120" as="geometry" />
        </mxCell>
        <mxCell id="-yXR84pEISBXPebQsvSQ-59" value="&lt;h2 style=&quot;margin:0px;margin-top:4px;text-align:center;&quot;&gt;Folder&lt;/h2&gt;&lt;hr size=&quot;1&quot; style=&quot;border-style:solid;&quot;&gt;&lt;h3&gt;&lt;div style=&quot;height:2px;&quot;&gt;&lt;ul&gt;&lt;li&gt;Virtuelle-Ordner-verwaltung&lt;/li&gt;&lt;li&gt;Dateizugriffs-verwaltung&lt;/li&gt;&lt;/ul&gt;&lt;div&gt;&lt;br&gt;&lt;/div&gt;&lt;/div&gt;&lt;/h3&gt;" style="verticalAlign=top;align=left;overflow=fill;html=1;whiteSpace=wrap;" parent="1" vertex="1">
          <mxGeometry x="860" y="310" width="179" height="120" as="geometry" />
        </mxCell>
        <mxCell id="-yXR84pEISBXPebQsvSQ-60" value="&lt;h2 style=&quot;margin:0px;margin-top:4px;text-align:center;&quot;&gt;File&lt;/h2&gt;&lt;hr size=&quot;1&quot; style=&quot;border-style:solid;&quot;&gt;&lt;h3&gt;&lt;div style=&quot;height:2px;&quot;&gt;&lt;ul&gt;&lt;li&gt;Metadaten-verwaltung&lt;/li&gt;&lt;li&gt;Verschlüsselte Dateien- Repräsentation&lt;table class=&quot;kb-table full-width bordered&quot;&gt;&lt;tbody&gt;&lt;tr&gt;&lt;td&gt;&lt;br&gt;&lt;/td&gt;&lt;br/&gt;&lt;td&gt;&lt;br&gt;&lt;/td&gt;&lt;/tr&gt;&lt;/tbody&gt;&lt;/table&gt;&lt;/li&gt;&lt;/ul&gt;&lt;/div&gt;&lt;/h3&gt;" style="verticalAlign=top;align=left;overflow=fill;html=1;whiteSpace=wrap;" parent="1" vertex="1">
          <mxGeometry x="860" y="450" width="179" height="140" as="geometry" />
        </mxCell>
        <mxCell id="-yXR84pEISBXPebQsvSQ-68" style="edgeStyle=orthogonalEdgeStyle;rounded=1;orthogonalLoop=1;jettySize=auto;html=1;fillColor=#60a917;strokeColor=#2D7600;curved=0;sketch=1;curveFitting=1;jiggle=2;shadow=0;flowAnimation=0;startSize=6;strokeWidth=3;jumpStyle=gap;entryX=0;entryY=0.875;entryDx=0;entryDy=0;entryPerimeter=0;" parent="1" edge="1" target="-yXR84pEISBXPebQsvSQ-30">
          <mxGeometry relative="1" as="geometry">
            <mxPoint x="270" y="500" as="targetPoint" />
            <mxPoint x="260" y="400" as="sourcePoint" />
            <Array as="points">
              <mxPoint x="260" y="400" />
              <mxPoint x="380" y="400" />
              <mxPoint x="380" y="660" />
            </Array>
          </mxGeometry>
        </mxCell>
        <mxCell id="Wj3pU2oSyz4qSfwIh86G-1" style="edgeStyle=orthogonalEdgeStyle;rounded=1;orthogonalLoop=1;jettySize=auto;html=1;exitX=1;exitY=0.25;exitDx=0;exitDy=0;fillColor=#60a917;strokeColor=#2D7600;curved=0;sketch=1;curveFitting=1;jiggle=2;shadow=0;flowAnimation=0;startSize=6;strokeWidth=3;jumpStyle=gap;entryX=0;entryY=0.319;entryDx=0;entryDy=0;entryPerimeter=0;" edge="1" parent="1" target="-yXR84pEISBXPebQsvSQ-37">
          <mxGeometry relative="1" as="geometry">
            <mxPoint x="820" y="520" as="targetPoint" />
            <mxPoint x="660" y="650" as="sourcePoint" />
            <Array as="points">
              <mxPoint x="660" y="651" />
              <mxPoint x="780" y="651" />
              <mxPoint x="780" y="260" />
            </Array>
          </mxGeometry>
        </mxCell>
        <mxCell id="Wj3pU2oSyz4qSfwIh86G-3" value="" style="endArrow=classic;html=1;rounded=1;shadow=1;sketch=1;jiggle=2;curveFitting=1;strokeColor=#2D7600;strokeWidth=3;align=center;verticalAlign=middle;fontFamily=Helvetica;fontSize=11;fontColor=default;labelBackgroundColor=default;edgeStyle=orthogonalEdgeStyle;startSize=6;flowAnimation=1;curved=0;fillColor=#60a917;exitX=0;exitY=0.25;exitDx=0;exitDy=0;entryX=1.005;entryY=0.461;entryDx=0;entryDy=0;entryPerimeter=0;" edge="1" parent="1" source="-yXR84pEISBXPebQsvSQ-37" target="-yXR84pEISBXPebQsvSQ-30">
          <mxGeometry width="50" height="50" relative="1" as="geometry">
            <mxPoint x="770" y="200" as="sourcePoint" />
            <mxPoint x="820" y="150" as="targetPoint" />
            <Array as="points">
              <mxPoint x="720" y="210" />
              <mxPoint x="720" y="362" />
            </Array>
          </mxGeometry>
        </mxCell>
        <mxCell id="Wj3pU2oSyz4qSfwIh86G-4" value="" style="endArrow=classic;html=1;rounded=1;shadow=1;sketch=1;jiggle=2;curveFitting=1;strokeColor=#2D7600;strokeWidth=3;align=center;verticalAlign=middle;fontFamily=Helvetica;fontSize=11;fontColor=default;labelBackgroundColor=default;edgeStyle=orthogonalEdgeStyle;startSize=6;flowAnimation=1;curved=0;fillColor=#60a917;exitX=-0.005;exitY=0.451;exitDx=0;exitDy=0;exitPerimeter=0;entryX=1.005;entryY=0.449;entryDx=0;entryDy=0;entryPerimeter=0;" edge="1" parent="1">
          <mxGeometry width="50" height="50" relative="1" as="geometry">
            <mxPoint x="438.9000000000001" y="372.72" as="sourcePoint" />
            <mxPoint x="261.0999999999999" y="371.28" as="targetPoint" />
            <Array as="points">
              <mxPoint x="263" y="373" />
              <mxPoint x="263" y="371" />
            </Array>
          </mxGeometry>
        </mxCell>
        <mxCell id="Wj3pU2oSyz4qSfwIh86G-7" value="" style="rounded=1;whiteSpace=wrap;html=1;fontFamily=Helvetica;fontSize=11;fontColor=#ffffff;labelBackgroundColor=default;fillColor=#008a00;strokeColor=#005700;" vertex="1" parent="1">
          <mxGeometry x="40" y="760" width="220" height="20" as="geometry" />
        </mxCell>
        <mxCell id="Wj3pU2oSyz4qSfwIh86G-8" value="&lt;h2&gt;Authentifizierungsfluss&lt;/h2&gt;&lt;div&gt;&lt;br&gt;&lt;/div&gt;" style="text;html=1;align=center;verticalAlign=middle;whiteSpace=wrap;rounded=0;fontFamily=Helvetica;fontSize=11;fontColor=default;labelBackgroundColor=none;" vertex="1" parent="1">
          <mxGeometry x="40" y="800" width="220" height="30" as="geometry" />
        </mxCell>
        <mxCell id="Wj3pU2oSyz4qSfwIh86G-9" value="" style="rounded=1;whiteSpace=wrap;html=1;fontFamily=Helvetica;fontSize=11;fontColor=#ffffff;labelBackgroundColor=default;fillColor=#a20025;strokeColor=#6F0000;" vertex="1" parent="1">
          <mxGeometry x="437.5" y="760" width="220" height="20" as="geometry" />
        </mxCell>
        <mxCell id="Wj3pU2oSyz4qSfwIh86G-10" value="&lt;h2&gt;Dateioperationfluss&lt;/h2&gt;&lt;div&gt;&lt;br&gt;&lt;/div&gt;" style="text;html=1;align=center;verticalAlign=middle;whiteSpace=wrap;rounded=0;fontFamily=Helvetica;fontSize=11;fontColor=default;labelBackgroundColor=none;" vertex="1" parent="1">
          <mxGeometry x="437.5" y="800" width="220" height="30" as="geometry" />
        </mxCell>
        <mxCell id="Wj3pU2oSyz4qSfwIh86G-12" value="" style="endArrow=classic;html=1;rounded=1;shadow=1;sketch=1;jiggle=2;curveFitting=1;strokeColor=#6F0000;strokeWidth=3;align=center;verticalAlign=middle;fontFamily=Helvetica;fontSize=11;fontColor=default;labelBackgroundColor=default;edgeStyle=orthogonalEdgeStyle;startSize=6;flowAnimation=1;curved=0;fillColor=#a20025;entryX=0;entryY=0.667;entryDx=0;entryDy=0;entryPerimeter=0;" edge="1" parent="1" target="-yXR84pEISBXPebQsvSQ-30">
          <mxGeometry width="50" height="50" relative="1" as="geometry">
            <mxPoint x="260" y="510" as="sourcePoint" />
            <mxPoint x="310" y="460" as="targetPoint" />
          </mxGeometry>
        </mxCell>
        <mxCell id="Wj3pU2oSyz4qSfwIh86G-15" value="" style="endArrow=classic;html=1;rounded=1;shadow=1;sketch=1;jiggle=2;curveFitting=1;strokeColor=#6F0000;strokeWidth=3;align=center;verticalAlign=middle;fontFamily=Helvetica;fontSize=11;fontColor=default;labelBackgroundColor=default;edgeStyle=orthogonalEdgeStyle;startSize=6;flowAnimation=1;curved=0;fillColor=#a20025;entryX=0.009;entryY=0.668;entryDx=0;entryDy=0;entryPerimeter=0;" edge="1" parent="1">
          <mxGeometry width="50" height="50" relative="1" as="geometry">
            <mxPoint x="657.5" y="532" as="sourcePoint" />
            <mxPoint x="841.98" y="532.96" as="targetPoint" />
            <Array as="points">
              <mxPoint x="658" y="533" />
              <mxPoint x="750" y="533" />
              <mxPoint x="750" y="534" />
            </Array>
          </mxGeometry>
        </mxCell>
        <mxCell id="Wj3pU2oSyz4qSfwIh86G-16" value="" style="endArrow=classic;html=1;rounded=1;shadow=1;sketch=1;jiggle=2;curveFitting=1;strokeColor=#6F0000;strokeWidth=3;align=center;verticalAlign=middle;fontFamily=Helvetica;fontSize=11;fontColor=default;labelBackgroundColor=default;edgeStyle=orthogonalEdgeStyle;startSize=6;flowAnimation=1;curved=0;fillColor=#a20025;exitX=0;exitY=0.653;exitDx=0;exitDy=0;exitPerimeter=0;entryX=1;entryY=0.292;entryDx=0;entryDy=0;entryPerimeter=0;" edge="1" parent="1" source="-yXR84pEISBXPebQsvSQ-37" target="-yXR84pEISBXPebQsvSQ-30">
          <mxGeometry width="50" height="50" relative="1" as="geometry">
            <mxPoint x="710" y="500" as="sourcePoint" />
            <mxPoint x="670" y="240" as="targetPoint" />
          </mxGeometry>
        </mxCell>
        <mxCell id="Wj3pU2oSyz4qSfwIh86G-18" value="" style="endArrow=classic;html=1;rounded=1;shadow=1;sketch=1;jiggle=2;curveFitting=1;strokeColor=#6F0000;strokeWidth=3;align=center;verticalAlign=middle;fontFamily=Helvetica;fontSize=11;fontColor=default;labelBackgroundColor=default;edgeStyle=orthogonalEdgeStyle;startSize=6;flowAnimation=1;curved=0;fillColor=#a20025;exitX=-0.014;exitY=0.308;exitDx=0;exitDy=0;exitPerimeter=0;" edge="1" parent="1" source="-yXR84pEISBXPebQsvSQ-30">
          <mxGeometry width="50" height="50" relative="1" as="geometry">
            <mxPoint x="310" y="250" as="sourcePoint" />
            <mxPoint x="440" y="341" as="targetPoint" />
            <Array as="points">
              <mxPoint x="406" y="252" />
              <mxPoint x="406" y="341" />
              <mxPoint x="439" y="341" />
            </Array>
          </mxGeometry>
        </mxCell>
        <mxCell id="Wj3pU2oSyz4qSfwIh86G-19" value="" style="rounded=1;whiteSpace=wrap;html=1;fontFamily=Helvetica;fontSize=11;fontColor=#ffffff;labelBackgroundColor=default;fillColor=#0050ef;strokeColor=#001DBC;" vertex="1" parent="1">
          <mxGeometry x="841.5" y="760" width="220" height="20" as="geometry" />
        </mxCell>
        <mxCell id="Wj3pU2oSyz4qSfwIh86G-20" value="&lt;h2&gt;Ordneroperationfluss&lt;/h2&gt;&lt;div&gt;&lt;br&gt;&lt;/div&gt;" style="text;html=1;align=center;verticalAlign=middle;whiteSpace=wrap;rounded=0;fontFamily=Helvetica;fontSize=11;fontColor=default;labelBackgroundColor=none;" vertex="1" parent="1">
          <mxGeometry x="841.5" y="800" width="220" height="30" as="geometry" />
        </mxCell>
        <mxCell id="Wj3pU2oSyz4qSfwIh86G-21" value="" style="endArrow=classic;html=1;rounded=1;shadow=1;sketch=1;jiggle=2;curveFitting=1;strokeColor=#001DBC;strokeWidth=3;align=center;verticalAlign=middle;fontFamily=Helvetica;fontSize=11;fontColor=default;labelBackgroundColor=default;edgeStyle=orthogonalEdgeStyle;startSize=6;flowAnimation=1;curved=0;fillColor=#0050ef;entryX=-0.009;entryY=0.399;entryDx=0;entryDy=0;entryPerimeter=0;" edge="1" parent="1" target="-yXR84pEISBXPebQsvSQ-30">
          <mxGeometry width="50" height="50" relative="1" as="geometry">
            <mxPoint x="260" y="640" as="sourcePoint" />
            <mxPoint x="310" y="330" as="targetPoint" />
            <Array as="points">
              <mxPoint x="260" y="641" />
              <mxPoint x="311" y="641" />
              <mxPoint x="311" y="317" />
            </Array>
          </mxGeometry>
        </mxCell>
        <mxCell id="Wj3pU2oSyz4qSfwIh86G-22" value="" style="endArrow=classic;html=1;rounded=1;shadow=1;sketch=1;jiggle=2;curveFitting=1;strokeColor=#001DBC;strokeWidth=3;align=center;verticalAlign=middle;fontFamily=Helvetica;fontSize=11;fontColor=default;labelBackgroundColor=default;edgeStyle=orthogonalEdgeStyle;startSize=6;flowAnimation=1;curved=0;fillColor=#0050ef;entryX=0.989;entryY=0.669;entryDx=0;entryDy=0;entryPerimeter=0;" edge="1" parent="1" target="-yXR84pEISBXPebQsvSQ-30">
          <mxGeometry width="50" height="50" relative="1" as="geometry">
            <mxPoint x="657.5" y="394.75" as="sourcePoint" />
            <mxPoint x="710" y="510" as="targetPoint" />
            <Array as="points">
              <mxPoint x="711" y="395" />
              <mxPoint x="711" y="512" />
            </Array>
          </mxGeometry>
        </mxCell>
      </root>
    </mxGraphModel>
  </diagram>
</mxfile>
